<svg width="240" height="240" xmlns="http://www.w3.org/2000/svg"><defs><linearGradient x1="-.061%" y1="50.099%" x2="99.979%" y2="50.099%" id="a"><stop stop-color="#006ad4" stop-opacity=".3" offset="0%"/><stop stop-color="#006ad4" offset="100%"/></linearGradient><linearGradient x1="49.846%" y1="100.023%" x2="49.846%" y2=".04%" id="b"><stop stop-color="#006ad4" stop-opacity=".5" offset="0%"/><stop stop-color="#006ad4" offset="100%"/></linearGradient><linearGradient x1=".035%" y1="50.213%" x2="99.946%" y2="50.213%" id="c"><stop stop-color="#006ad4" stop-opacity=".5" offset="0%"/><stop stop-color="#006ad4" stop-opacity=".2" offset="100%"/></linearGradient></defs><g fill="none"><path d="M119.674 117.685H0v-43.37h119.674c2.39 0 4.344 2.033 4.344 4.518v34.334c0 2.485-1.955 4.518-4.344 4.518Z" fill="url(#a)" transform="translate(48 24)"/><path d="M171.15 24C182.66 24 192 33.713 192 45.685c0 11.971-9.34 21.684-20.85 21.684-11.512 0-20.851-9.713-20.851-21.684 0-11.972 9.339-21.685 20.85-21.685Z" fill="#006ad4"/><path d="M0 56.47V192l34.751-13.101c4.344-1.581 7.168-5.873 7.168-10.617V45.176C41.919 20.33 61.466 0 85.357 0H54.3C24.326 0 0 25.299 0 56.47Z" fill="url(#b)" transform="translate(48 24)"/><path d="M123.584 0H84.489C60.814.452 41.7 20.33 41.7 45.176v2.711c3.693-2.71 8.037-4.518 13.032-4.518H123.8L123.584 0Z" fill="url(#c)" transform="translate(48 24)"/></g></svg>